<mxfile host="app.diagrams.net" modified="2023-08-11T07:02:38.797Z" agent="Mozilla/5.0 (Windows NT 10.0; Win64; x64) AppleWebKit/537.36 (KHTML, like Gecko) Chrome/115.0.0.0 Safari/537.36 Edg/115.0.1901.200" etag="FTuzW029XDnJD8LiLcGp" version="21.6.7" type="github">
  <diagram name="Page-1" id="9rE6ETTJMB30ps0vvEBX">
    <mxGraphModel dx="1323" dy="835" grid="1" gridSize="10" guides="1" tooltips="1" connect="1" arrows="1" fold="1" page="1" pageScale="1" pageWidth="850" pageHeight="1100" math="0" shadow="0">
      <root>
        <mxCell id="0" />
        <mxCell id="1" parent="0" />
        <mxCell id="ERzUv4ydD4iOCLheIweY-3" value="" style="whiteSpace=wrap;html=1;aspect=fixed;" parent="1" vertex="1">
          <mxGeometry x="200" y="160" width="240" height="240" as="geometry" />
        </mxCell>
        <mxCell id="ERzUv4ydD4iOCLheIweY-4" value="" style="whiteSpace=wrap;html=1;aspect=fixed;fillColor=#fff2cc;strokeColor=default;" parent="1" vertex="1">
          <mxGeometry x="200" y="160" width="40" height="40" as="geometry" />
        </mxCell>
        <mxCell id="ERzUv4ydD4iOCLheIweY-5" value="" style="whiteSpace=wrap;html=1;aspect=fixed;fillColor=#dae8fc;strokeColor=default;" parent="1" vertex="1">
          <mxGeometry x="240" y="160" width="40" height="40" as="geometry" />
        </mxCell>
        <mxCell id="ERzUv4ydD4iOCLheIweY-6" value="" style="whiteSpace=wrap;html=1;aspect=fixed;fillColor=#dae8fc;strokeColor=default;" parent="1" vertex="1">
          <mxGeometry x="280" y="160" width="40" height="40" as="geometry" />
        </mxCell>
        <mxCell id="ERzUv4ydD4iOCLheIweY-7" value="" style="whiteSpace=wrap;html=1;aspect=fixed;fillColor=#dae8fc;strokeColor=default;" parent="1" vertex="1">
          <mxGeometry x="320" y="160" width="40" height="40" as="geometry" />
        </mxCell>
        <mxCell id="ERzUv4ydD4iOCLheIweY-9" value="" style="whiteSpace=wrap;html=1;aspect=fixed;fillColor=#dae8fc;strokeColor=default;" parent="1" vertex="1">
          <mxGeometry x="360" y="160" width="40" height="40" as="geometry" />
        </mxCell>
        <mxCell id="ERzUv4ydD4iOCLheIweY-10" value="" style="whiteSpace=wrap;html=1;aspect=fixed;fillColor=#dae8fc;strokeColor=default;" parent="1" vertex="1">
          <mxGeometry x="400" y="160" width="40" height="40" as="geometry" />
        </mxCell>
        <mxCell id="ERzUv4ydD4iOCLheIweY-11" value="" style="whiteSpace=wrap;html=1;aspect=fixed;fillColor=#dae8fc;strokeColor=default;" parent="1" vertex="1">
          <mxGeometry x="200" y="200" width="40" height="40" as="geometry" />
        </mxCell>
        <mxCell id="ERzUv4ydD4iOCLheIweY-12" value="" style="whiteSpace=wrap;html=1;aspect=fixed;fillColor=#dae8fc;strokeColor=default;" parent="1" vertex="1">
          <mxGeometry x="200" y="240" width="40" height="40" as="geometry" />
        </mxCell>
        <mxCell id="ERzUv4ydD4iOCLheIweY-13" value="" style="whiteSpace=wrap;html=1;aspect=fixed;fillColor=#dae8fc;strokeColor=default;" parent="1" vertex="1">
          <mxGeometry x="200" y="280" width="40" height="40" as="geometry" />
        </mxCell>
        <mxCell id="ERzUv4ydD4iOCLheIweY-14" value="" style="whiteSpace=wrap;html=1;aspect=fixed;fillColor=#dae8fc;strokeColor=default;" parent="1" vertex="1">
          <mxGeometry x="200" y="320" width="40" height="40" as="geometry" />
        </mxCell>
        <mxCell id="ERzUv4ydD4iOCLheIweY-15" value="" style="whiteSpace=wrap;html=1;aspect=fixed;fillColor=#dae8fc;strokeColor=default;" parent="1" vertex="1">
          <mxGeometry x="200" y="360" width="40" height="40" as="geometry" />
        </mxCell>
        <mxCell id="ERzUv4ydD4iOCLheIweY-16" value="" style="whiteSpace=wrap;html=1;aspect=fixed;" parent="1" vertex="1">
          <mxGeometry x="520" y="160" width="240" height="240" as="geometry" />
        </mxCell>
        <mxCell id="ERzUv4ydD4iOCLheIweY-17" value="" style="whiteSpace=wrap;html=1;aspect=fixed;fillColor=#fff2cc;strokeColor=default;" parent="1" vertex="1">
          <mxGeometry x="560" y="200" width="40" height="40" as="geometry" />
        </mxCell>
        <mxCell id="ERzUv4ydD4iOCLheIweY-19" value="" style="whiteSpace=wrap;html=1;aspect=fixed;fillColor=#dae8fc;strokeColor=default;" parent="1" vertex="1">
          <mxGeometry x="600" y="200" width="40" height="40" as="geometry" />
        </mxCell>
        <mxCell id="ERzUv4ydD4iOCLheIweY-20" value="" style="whiteSpace=wrap;html=1;aspect=fixed;fillColor=#dae8fc;strokeColor=default;" parent="1" vertex="1">
          <mxGeometry x="640" y="200" width="40" height="40" as="geometry" />
        </mxCell>
        <mxCell id="ERzUv4ydD4iOCLheIweY-21" value="" style="whiteSpace=wrap;html=1;aspect=fixed;fillColor=#dae8fc;strokeColor=default;" parent="1" vertex="1">
          <mxGeometry x="680" y="200" width="40" height="40" as="geometry" />
        </mxCell>
        <mxCell id="ERzUv4ydD4iOCLheIweY-22" value="" style="whiteSpace=wrap;html=1;aspect=fixed;fillColor=#dae8fc;strokeColor=default;" parent="1" vertex="1">
          <mxGeometry x="720" y="200" width="40" height="40" as="geometry" />
        </mxCell>
        <mxCell id="ERzUv4ydD4iOCLheIweY-23" value="" style="whiteSpace=wrap;html=1;aspect=fixed;fillColor=#dae8fc;strokeColor=default;" parent="1" vertex="1">
          <mxGeometry x="560" y="240" width="40" height="40" as="geometry" />
        </mxCell>
        <mxCell id="ERzUv4ydD4iOCLheIweY-24" value="" style="whiteSpace=wrap;html=1;aspect=fixed;fillColor=#dae8fc;strokeColor=default;" parent="1" vertex="1">
          <mxGeometry x="560" y="280" width="40" height="40" as="geometry" />
        </mxCell>
        <mxCell id="ERzUv4ydD4iOCLheIweY-25" value="" style="whiteSpace=wrap;html=1;aspect=fixed;fillColor=#dae8fc;strokeColor=default;" parent="1" vertex="1">
          <mxGeometry x="560" y="320" width="40" height="40" as="geometry" />
        </mxCell>
        <mxCell id="ERzUv4ydD4iOCLheIweY-27" value="" style="whiteSpace=wrap;html=1;aspect=fixed;fillColor=#dae8fc;strokeColor=default;" parent="1" vertex="1">
          <mxGeometry x="560" y="360" width="40" height="40" as="geometry" />
        </mxCell>
        <mxCell id="ERzUv4ydD4iOCLheIweY-37" value="" style="whiteSpace=wrap;html=1;aspect=fixed;" parent="1" vertex="1">
          <mxGeometry x="240" y="200" width="40" height="40" as="geometry" />
        </mxCell>
        <mxCell id="ERzUv4ydD4iOCLheIweY-38" value="" style="whiteSpace=wrap;html=1;aspect=fixed;" parent="1" vertex="1">
          <mxGeometry x="280" y="200" width="40" height="40" as="geometry" />
        </mxCell>
        <mxCell id="ERzUv4ydD4iOCLheIweY-39" value="" style="whiteSpace=wrap;html=1;aspect=fixed;" parent="1" vertex="1">
          <mxGeometry x="320" y="200" width="40" height="40" as="geometry" />
        </mxCell>
        <mxCell id="ERzUv4ydD4iOCLheIweY-40" value="" style="whiteSpace=wrap;html=1;aspect=fixed;" parent="1" vertex="1">
          <mxGeometry x="360" y="200" width="40" height="40" as="geometry" />
        </mxCell>
        <mxCell id="ERzUv4ydD4iOCLheIweY-41" value="" style="whiteSpace=wrap;html=1;aspect=fixed;" parent="1" vertex="1">
          <mxGeometry x="400" y="200" width="40" height="40" as="geometry" />
        </mxCell>
        <mxCell id="ERzUv4ydD4iOCLheIweY-42" value="iLev=0" style="text;html=1;strokeColor=none;fillColor=none;align=center;verticalAlign=middle;whiteSpace=wrap;rounded=0;" parent="1" vertex="1">
          <mxGeometry x="270" y="120" width="60" height="30" as="geometry" />
        </mxCell>
        <mxCell id="ERzUv4ydD4iOCLheIweY-43" value="" style="whiteSpace=wrap;html=1;aspect=fixed;" parent="1" vertex="1">
          <mxGeometry x="240" y="240" width="40" height="40" as="geometry" />
        </mxCell>
        <mxCell id="ERzUv4ydD4iOCLheIweY-44" value="" style="whiteSpace=wrap;html=1;aspect=fixed;" parent="1" vertex="1">
          <mxGeometry x="280" y="240" width="40" height="40" as="geometry" />
        </mxCell>
        <mxCell id="ERzUv4ydD4iOCLheIweY-45" value="" style="whiteSpace=wrap;html=1;aspect=fixed;" parent="1" vertex="1">
          <mxGeometry x="320" y="240" width="40" height="40" as="geometry" />
        </mxCell>
        <mxCell id="ERzUv4ydD4iOCLheIweY-46" value="" style="whiteSpace=wrap;html=1;aspect=fixed;" parent="1" vertex="1">
          <mxGeometry x="360" y="240" width="40" height="40" as="geometry" />
        </mxCell>
        <mxCell id="ERzUv4ydD4iOCLheIweY-47" value="" style="whiteSpace=wrap;html=1;aspect=fixed;" parent="1" vertex="1">
          <mxGeometry x="400" y="240" width="40" height="40" as="geometry" />
        </mxCell>
        <mxCell id="ERzUv4ydD4iOCLheIweY-48" value="" style="whiteSpace=wrap;html=1;aspect=fixed;" parent="1" vertex="1">
          <mxGeometry x="240" y="280" width="40" height="40" as="geometry" />
        </mxCell>
        <mxCell id="ERzUv4ydD4iOCLheIweY-49" value="" style="whiteSpace=wrap;html=1;aspect=fixed;" parent="1" vertex="1">
          <mxGeometry x="280" y="280" width="40" height="40" as="geometry" />
        </mxCell>
        <mxCell id="ERzUv4ydD4iOCLheIweY-50" value="" style="whiteSpace=wrap;html=1;aspect=fixed;" parent="1" vertex="1">
          <mxGeometry x="320" y="280" width="40" height="40" as="geometry" />
        </mxCell>
        <mxCell id="ERzUv4ydD4iOCLheIweY-51" value="" style="whiteSpace=wrap;html=1;aspect=fixed;" parent="1" vertex="1">
          <mxGeometry x="360" y="280" width="40" height="40" as="geometry" />
        </mxCell>
        <mxCell id="ERzUv4ydD4iOCLheIweY-52" value="" style="whiteSpace=wrap;html=1;aspect=fixed;" parent="1" vertex="1">
          <mxGeometry x="400" y="280" width="40" height="40" as="geometry" />
        </mxCell>
        <mxCell id="ERzUv4ydD4iOCLheIweY-54" value="" style="whiteSpace=wrap;html=1;aspect=fixed;" parent="1" vertex="1">
          <mxGeometry x="240" y="320" width="40" height="40" as="geometry" />
        </mxCell>
        <mxCell id="ERzUv4ydD4iOCLheIweY-55" value="" style="whiteSpace=wrap;html=1;aspect=fixed;" parent="1" vertex="1">
          <mxGeometry x="280" y="320" width="40" height="40" as="geometry" />
        </mxCell>
        <mxCell id="ERzUv4ydD4iOCLheIweY-56" value="" style="whiteSpace=wrap;html=1;aspect=fixed;" parent="1" vertex="1">
          <mxGeometry x="320" y="320" width="40" height="40" as="geometry" />
        </mxCell>
        <mxCell id="ERzUv4ydD4iOCLheIweY-57" value="" style="whiteSpace=wrap;html=1;aspect=fixed;" parent="1" vertex="1">
          <mxGeometry x="360" y="320" width="40" height="40" as="geometry" />
        </mxCell>
        <mxCell id="ERzUv4ydD4iOCLheIweY-58" value="" style="whiteSpace=wrap;html=1;aspect=fixed;" parent="1" vertex="1">
          <mxGeometry x="400" y="320" width="40" height="40" as="geometry" />
        </mxCell>
        <mxCell id="ERzUv4ydD4iOCLheIweY-59" value="" style="whiteSpace=wrap;html=1;aspect=fixed;" parent="1" vertex="1">
          <mxGeometry x="240" y="360" width="40" height="40" as="geometry" />
        </mxCell>
        <mxCell id="ERzUv4ydD4iOCLheIweY-60" value="" style="whiteSpace=wrap;html=1;aspect=fixed;" parent="1" vertex="1">
          <mxGeometry x="280" y="360" width="40" height="40" as="geometry" />
        </mxCell>
        <mxCell id="ERzUv4ydD4iOCLheIweY-61" value="" style="whiteSpace=wrap;html=1;aspect=fixed;" parent="1" vertex="1">
          <mxGeometry x="320" y="360" width="40" height="40" as="geometry" />
        </mxCell>
        <mxCell id="ERzUv4ydD4iOCLheIweY-62" value="" style="whiteSpace=wrap;html=1;aspect=fixed;" parent="1" vertex="1">
          <mxGeometry x="360" y="360" width="40" height="40" as="geometry" />
        </mxCell>
        <mxCell id="ERzUv4ydD4iOCLheIweY-63" value="" style="whiteSpace=wrap;html=1;aspect=fixed;" parent="1" vertex="1">
          <mxGeometry x="400" y="360" width="40" height="40" as="geometry" />
        </mxCell>
        <mxCell id="ERzUv4ydD4iOCLheIweY-64" value="" style="whiteSpace=wrap;html=1;aspect=fixed;" parent="1" vertex="1">
          <mxGeometry x="600" y="240" width="40" height="40" as="geometry" />
        </mxCell>
        <mxCell id="ERzUv4ydD4iOCLheIweY-65" value="" style="whiteSpace=wrap;html=1;aspect=fixed;" parent="1" vertex="1">
          <mxGeometry x="640" y="240" width="40" height="40" as="geometry" />
        </mxCell>
        <mxCell id="ERzUv4ydD4iOCLheIweY-66" value="" style="whiteSpace=wrap;html=1;aspect=fixed;" parent="1" vertex="1">
          <mxGeometry x="680" y="240" width="40" height="40" as="geometry" />
        </mxCell>
        <mxCell id="ERzUv4ydD4iOCLheIweY-67" value="" style="whiteSpace=wrap;html=1;aspect=fixed;" parent="1" vertex="1">
          <mxGeometry x="720" y="240" width="40" height="40" as="geometry" />
        </mxCell>
        <mxCell id="ERzUv4ydD4iOCLheIweY-68" value="" style="whiteSpace=wrap;html=1;aspect=fixed;" parent="1" vertex="1">
          <mxGeometry x="600" y="280" width="40" height="40" as="geometry" />
        </mxCell>
        <mxCell id="ERzUv4ydD4iOCLheIweY-69" value="" style="whiteSpace=wrap;html=1;aspect=fixed;" parent="1" vertex="1">
          <mxGeometry x="640" y="280" width="40" height="40" as="geometry" />
        </mxCell>
        <mxCell id="ERzUv4ydD4iOCLheIweY-70" value="" style="whiteSpace=wrap;html=1;aspect=fixed;" parent="1" vertex="1">
          <mxGeometry x="680" y="280" width="40" height="40" as="geometry" />
        </mxCell>
        <mxCell id="ERzUv4ydD4iOCLheIweY-71" value="" style="whiteSpace=wrap;html=1;aspect=fixed;" parent="1" vertex="1">
          <mxGeometry x="720" y="280" width="40" height="40" as="geometry" />
        </mxCell>
        <mxCell id="ERzUv4ydD4iOCLheIweY-72" value="" style="whiteSpace=wrap;html=1;aspect=fixed;" parent="1" vertex="1">
          <mxGeometry x="600" y="320" width="40" height="40" as="geometry" />
        </mxCell>
        <mxCell id="ERzUv4ydD4iOCLheIweY-73" value="" style="whiteSpace=wrap;html=1;aspect=fixed;" parent="1" vertex="1">
          <mxGeometry x="640" y="320" width="40" height="40" as="geometry" />
        </mxCell>
        <mxCell id="ERzUv4ydD4iOCLheIweY-74" value="" style="whiteSpace=wrap;html=1;aspect=fixed;" parent="1" vertex="1">
          <mxGeometry x="680" y="320" width="40" height="40" as="geometry" />
        </mxCell>
        <mxCell id="ERzUv4ydD4iOCLheIweY-75" value="" style="whiteSpace=wrap;html=1;aspect=fixed;" parent="1" vertex="1">
          <mxGeometry x="720" y="320" width="40" height="40" as="geometry" />
        </mxCell>
        <mxCell id="ERzUv4ydD4iOCLheIweY-76" value="" style="whiteSpace=wrap;html=1;aspect=fixed;" parent="1" vertex="1">
          <mxGeometry x="600" y="360" width="40" height="40" as="geometry" />
        </mxCell>
        <mxCell id="ERzUv4ydD4iOCLheIweY-77" value="" style="whiteSpace=wrap;html=1;aspect=fixed;" parent="1" vertex="1">
          <mxGeometry x="640" y="360" width="40" height="40" as="geometry" />
        </mxCell>
        <mxCell id="ERzUv4ydD4iOCLheIweY-78" value="" style="whiteSpace=wrap;html=1;aspect=fixed;" parent="1" vertex="1">
          <mxGeometry x="680" y="360" width="40" height="40" as="geometry" />
        </mxCell>
        <mxCell id="ERzUv4ydD4iOCLheIweY-79" value="" style="whiteSpace=wrap;html=1;aspect=fixed;" parent="1" vertex="1">
          <mxGeometry x="720" y="360" width="40" height="40" as="geometry" />
        </mxCell>
        <mxCell id="ERzUv4ydD4iOCLheIweY-80" value="" style="whiteSpace=wrap;html=1;aspect=fixed;" parent="1" vertex="1">
          <mxGeometry x="520" y="240" width="40" height="40" as="geometry" />
        </mxCell>
        <mxCell id="ERzUv4ydD4iOCLheIweY-81" value="" style="whiteSpace=wrap;html=1;aspect=fixed;" parent="1" vertex="1">
          <mxGeometry x="520" y="320" width="40" height="40" as="geometry" />
        </mxCell>
        <mxCell id="ERzUv4ydD4iOCLheIweY-82" value="" style="whiteSpace=wrap;html=1;aspect=fixed;" parent="1" vertex="1">
          <mxGeometry x="520" y="280" width="40" height="40" as="geometry" />
        </mxCell>
        <mxCell id="ERzUv4ydD4iOCLheIweY-83" value="" style="whiteSpace=wrap;html=1;aspect=fixed;" parent="1" vertex="1">
          <mxGeometry x="520" y="200" width="40" height="40" as="geometry" />
        </mxCell>
        <mxCell id="ERzUv4ydD4iOCLheIweY-84" value="" style="whiteSpace=wrap;html=1;aspect=fixed;" parent="1" vertex="1">
          <mxGeometry x="600" y="160" width="40" height="40" as="geometry" />
        </mxCell>
        <mxCell id="ERzUv4ydD4iOCLheIweY-85" value="" style="whiteSpace=wrap;html=1;aspect=fixed;" parent="1" vertex="1">
          <mxGeometry x="640" y="160" width="40" height="40" as="geometry" />
        </mxCell>
        <mxCell id="ERzUv4ydD4iOCLheIweY-86" value="" style="whiteSpace=wrap;html=1;aspect=fixed;" parent="1" vertex="1">
          <mxGeometry x="680" y="160" width="40" height="40" as="geometry" />
        </mxCell>
        <mxCell id="ERzUv4ydD4iOCLheIweY-87" value="" style="whiteSpace=wrap;html=1;aspect=fixed;" parent="1" vertex="1">
          <mxGeometry x="720" y="160" width="40" height="40" as="geometry" />
        </mxCell>
        <mxCell id="ERzUv4ydD4iOCLheIweY-88" value="" style="whiteSpace=wrap;html=1;aspect=fixed;" parent="1" vertex="1">
          <mxGeometry x="560" y="160" width="40" height="40" as="geometry" />
        </mxCell>
        <mxCell id="ERzUv4ydD4iOCLheIweY-89" value="" style="whiteSpace=wrap;html=1;aspect=fixed;" parent="1" vertex="1">
          <mxGeometry x="520" y="160" width="40" height="40" as="geometry" />
        </mxCell>
        <mxCell id="ERzUv4ydD4iOCLheIweY-90" value="iLev=1" style="text;html=1;strokeColor=none;fillColor=none;align=center;verticalAlign=middle;whiteSpace=wrap;rounded=0;" parent="1" vertex="1">
          <mxGeometry x="620" y="120" width="60" height="30" as="geometry" />
        </mxCell>
      </root>
    </mxGraphModel>
  </diagram>
</mxfile>
